<?xml version="1.0" encoding="UTF-8"?>
<svg width="19px" height="19px" viewBox="0 0 19 19" version="1.1" xmlns="http://www.w3.org/2000/svg" xmlns:xlink="http://www.w3.org/1999/xlink">
    <!-- Generator: Sketch 49.1 (51147) - http://www.bohemiancoding.com/sketch -->
    <title>question_mark_icon.png</title>
    <desc>Created with Sketch.</desc>
    <defs></defs>
    <g id="question_mark_icon.png" stroke="none" stroke-width="1" fill="none" fill-rule="evenodd">
        <g id="help-circle" transform="translate(3.000000, 3.000000)" fill="#757575" fill-rule="nonzero">
            <path d="M8.4955,6.0125 L7.9105,6.6105 C7.4425,7.0785 7.15,7.475 7.15,8.45 L5.85,8.45 L5.85,8.125 C5.85,7.4035 6.1425,6.7535 6.6105,6.2855 L7.4165,5.4665 C7.657,5.2325 7.8,4.9075 7.8,4.55 C7.8,3.8285 7.215,3.25 6.5,3.25 C5.78202983,3.25 5.2,3.83202983 5.2,4.55 L3.9,4.55 C3.9,3.11405965 5.06405965,1.95 6.5,1.95 C7.93594035,1.95 9.1,3.11405965 9.1,4.55 C9.1,5.122 8.866,5.6355 8.4955,6.0125 Z M7.15,11.05 L5.85,11.05 L5.85,9.75 L7.15,9.75 L7.15,11.05 Z M6.5,0 C2.91014913,-1.44328993e-15 2.88657986e-16,2.91014913 0,6.5 C-8.65973959e-16,8.22390718 0.684819462,9.87720762 1.90380592,11.0961941 C3.12279238,12.3151805 4.77609282,13 6.5,13 C8.22390718,13 9.87720762,12.3151805 11.0961941,11.0961941 C12.3151805,9.87720762 13,8.22390718 13,6.5 C13,2.9055 10.075,0 6.5,0 Z" id="Shape"></path>
        </g>
    </g>
</svg>